<svg width="22" height="22" viewBox="0 0 22 22" fill="none" xmlns="http://www.w3.org/2000/svg">
<path fill-rule="evenodd" clip-rule="evenodd" d="M0.949219 9.37834C0.949219 4.72309 4.72304 0.949265 9.37829 0.949265C14.0335 0.949265 17.8074 4.72309 17.8074 9.37834C17.8074 14.0336 14.0335 17.8074 9.37829 17.8074C4.72304 17.8074 0.949219 14.0336 0.949219 9.37834ZM9.37829 3.25039C5.99392 3.25039 3.25035 5.99397 3.25035 9.37834C3.25035 12.7627 5.99392 15.5063 9.37829 15.5063C12.7627 15.5063 15.5062 12.7627 15.5062 9.37834C15.5062 5.99397 12.7627 3.25039 9.37829 3.25039Z" fill="black"/>
<path d="M16.1955 16.1956C16.6448 15.7462 17.3733 15.7462 17.8226 16.1956L20.7137 19.0866C21.163 19.5359 21.163 20.2644 20.7137 20.7137C20.2644 21.1631 19.5359 21.1631 19.0865 20.7137L16.1955 17.8227C15.7462 17.3734 15.7462 16.6449 16.1955 16.1956Z" fill="black"/>
</svg>
